<?xml version="1.0" encoding="UTF-8"?>
<svg xmlns="http://www.w3.org/2000/svg" xmlns:xlink="http://www.w3.org/1999/xlink" width="854" height="480" viewBox="0 0 854 480">
<defs>
<g>
<g id="glyph-0-0">
<path d="M 0.324219 0 L 0.324219 -3.179688 L 0.746094 -3.179688 L 0.746094 -0.375 L 2.3125 -0.375 L 2.3125 0 Z "/>
</g>
<g id="glyph-0-1">
<path d="M 1.804688 0 L 1.804688 -0.339844 C 1.625 -0.078125 1.378906 0.0507812 1.070312 0.0507812 C 0.9375 0.0507812 0.808594 0.0273438 0.691406 -0.0273438 C 0.574219 -0.078125 0.484375 -0.144531 0.429688 -0.222656 C 0.371094 -0.300781 0.332031 -0.398438 0.308594 -0.511719 C 0.292969 -0.589844 0.285156 -0.710938 0.285156 -0.875 L 0.285156 -2.304688 L 0.675781 -2.304688 L 0.675781 -1.027344 C 0.675781 -0.824219 0.683594 -0.683594 0.699219 -0.613281 C 0.722656 -0.511719 0.773438 -0.429688 0.855469 -0.371094 C 0.933594 -0.3125 1.03125 -0.285156 1.148438 -0.285156 C 1.265625 -0.285156 1.378906 -0.3125 1.480469 -0.375 C 1.582031 -0.433594 1.65625 -0.515625 1.699219 -0.621094 C 1.742188 -0.722656 1.761719 -0.871094 1.761719 -1.070312 L 1.761719 -2.304688 L 2.152344 -2.304688 L 2.152344 0 Z "/>
</g>
<g id="glyph-0-2">
<path d="M 1.796875 -0.84375 L 2.179688 -0.792969 C 2.140625 -0.53125 2.03125 -0.320312 1.859375 -0.171875 C 1.6875 -0.0234375 1.472656 0.0507812 1.222656 0.0507812 C 0.90625 0.0507812 0.652344 -0.0507812 0.460938 -0.257812 C 0.269531 -0.464844 0.171875 -0.757812 0.171875 -1.144531 C 0.171875 -1.390625 0.214844 -1.609375 0.296875 -1.796875 C 0.378906 -1.984375 0.503906 -2.125 0.671875 -2.214844 C 0.84375 -2.308594 1.027344 -2.355469 1.222656 -2.355469 C 1.472656 -2.355469 1.679688 -2.292969 1.839844 -2.167969 C 1.996094 -2.039062 2.097656 -1.859375 2.144531 -1.628906 L 1.765625 -1.570312 C 1.726562 -1.722656 1.664062 -1.839844 1.570312 -1.917969 C 1.480469 -1.996094 1.371094 -2.035156 1.238281 -2.035156 C 1.042969 -2.035156 0.882812 -1.964844 0.757812 -1.824219 C 0.636719 -1.683594 0.574219 -1.460938 0.574219 -1.15625 C 0.574219 -0.84375 0.632812 -0.621094 0.753906 -0.480469 C 0.871094 -0.339844 1.027344 -0.269531 1.21875 -0.269531 C 1.371094 -0.269531 1.5 -0.316406 1.601562 -0.410156 C 1.703125 -0.503906 1.769531 -0.648438 1.796875 -0.84375 Z "/>
</g>
<g id="glyph-0-3">
<path d="M 0.296875 0 L 0.296875 -3.179688 L 0.6875 -3.179688 L 0.6875 -1.367188 L 1.609375 -2.304688 L 2.117188 -2.304688 L 1.234375 -1.449219 L 2.203125 0 L 1.722656 0 L 0.960938 -1.179688 L 0.6875 -0.914062 L 0.6875 0 Z "/>
</g>
<g id="glyph-0-4">
<path d="M 0.292969 0 L 0.292969 -2.304688 L 0.644531 -2.304688 L 0.644531 -1.976562 C 0.8125 -2.230469 1.058594 -2.355469 1.378906 -2.355469 C 1.515625 -2.355469 1.644531 -2.332031 1.761719 -2.28125 C 1.878906 -2.230469 1.964844 -2.167969 2.023438 -2.085938 C 2.082031 -2.003906 2.121094 -1.90625 2.144531 -1.796875 C 2.160156 -1.722656 2.164062 -1.597656 2.164062 -1.417969 L 2.164062 0 L 1.773438 0 L 1.773438 -1.402344 C 1.773438 -1.5625 1.761719 -1.679688 1.730469 -1.757812 C 1.699219 -1.835938 1.644531 -1.902344 1.566406 -1.949219 C 1.492188 -1.996094 1.398438 -2.019531 1.296875 -2.019531 C 1.128906 -2.019531 0.984375 -1.964844 0.863281 -1.859375 C 0.742188 -1.753906 0.683594 -1.554688 0.683594 -1.257812 L 0.683594 0 Z "/>
</g>
<g id="glyph-0-5">
<path d="M 0.148438 -1.152344 C 0.148438 -1.578125 0.265625 -1.894531 0.503906 -2.101562 C 0.703125 -2.269531 0.941406 -2.355469 1.226562 -2.355469 C 1.546875 -2.355469 1.804688 -2.253906 2.003906 -2.046875 C 2.207031 -1.835938 2.304688 -1.550781 2.304688 -1.183594 C 2.304688 -0.886719 2.261719 -0.65625 2.171875 -0.484375 C 2.085938 -0.316406 1.953125 -0.183594 1.785156 -0.0898438 C 1.613281 0.00390625 1.429688 0.0507812 1.226562 0.0507812 C 0.90625 0.0507812 0.644531 -0.0507812 0.445312 -0.257812 C 0.246094 -0.464844 0.148438 -0.761719 0.148438 -1.152344 M 0.550781 -1.152344 C 0.550781 -0.855469 0.613281 -0.636719 0.742188 -0.488281 C 0.871094 -0.34375 1.03125 -0.269531 1.226562 -0.269531 C 1.421875 -0.269531 1.582031 -0.34375 1.710938 -0.492188 C 1.839844 -0.636719 1.90625 -0.863281 1.90625 -1.164062 C 1.90625 -1.449219 1.839844 -1.667969 1.710938 -1.8125 C 1.582031 -1.960938 1.421875 -2.035156 1.226562 -2.035156 C 1.03125 -2.035156 0.871094 -1.960938 0.742188 -1.8125 C 0.613281 -1.667969 0.550781 -1.449219 0.550781 -1.152344 Z "/>
</g>
<g id="glyph-0-6">
<path d="M 0.71875 0 L 0.0117188 -2.304688 L 0.417969 -2.304688 L 0.785156 -0.972656 L 0.921875 -0.480469 C 0.925781 -0.503906 0.964844 -0.664062 1.039062 -0.953125 L 1.40625 -2.304688 L 1.808594 -2.304688 L 2.152344 -0.96875 L 2.265625 -0.527344 L 2.398438 -0.972656 L 2.792969 -2.304688 L 3.175781 -2.304688 L 2.453125 0 L 2.046875 0 L 1.683594 -1.378906 L 1.59375 -1.773438 L 1.125 0 Z "/>
</g>
</g>
</defs>
<g fill="rgb(97.647059%, 98.039216%, 98.431373%)" fill-opacity="1">
<use xlink:href="#glyph-0-0" x="30" y="24.022461"/>
<use xlink:href="#glyph-0-1" x="32" y="24.022461"/>
<use xlink:href="#glyph-0-2" x="34" y="24.022461"/>
<use xlink:href="#glyph-0-3" x="36" y="24.022461"/>
<use xlink:href="#glyph-0-4" x="38" y="24.022461"/>
<use xlink:href="#glyph-0-5" x="40" y="24.022461"/>
<use xlink:href="#glyph-0-6" x="42" y="24.022461"/>
</g>
</svg>
