<?xml version="1.0" encoding="UTF-8"?>
<svg xmlns="http://www.w3.org/2000/svg" xmlns:xlink="http://www.w3.org/1999/xlink" width="854" height="480" viewBox="0 0 854 480">
<defs>
<g>
<g id="glyph-0-0">
<path d="M 0.347656 0 L 0.347656 -3.179688 L 1.761719 -3.179688 C 2.042969 -3.179688 2.257812 -3.152344 2.40625 -3.09375 C 2.554688 -3.039062 2.671875 -2.9375 2.761719 -2.792969 C 2.847656 -2.648438 2.890625 -2.488281 2.890625 -2.3125 C 2.890625 -2.085938 2.820312 -1.898438 2.671875 -1.742188 C 2.527344 -1.585938 2.300781 -1.488281 1.996094 -1.449219 C 2.109375 -1.394531 2.191406 -1.339844 2.25 -1.289062 C 2.375 -1.175781 2.488281 -1.035156 2.597656 -0.867188 L 3.152344 0 L 2.625 0 L 2.203125 -0.660156 C 2.078125 -0.851562 1.976562 -1 1.898438 -1.101562 C 1.820312 -1.203125 1.746094 -1.273438 1.683594 -1.3125 C 1.621094 -1.351562 1.558594 -1.382812 1.492188 -1.398438 C 1.445312 -1.40625 1.367188 -1.414062 1.257812 -1.414062 L 0.769531 -1.414062 L 0.769531 0 L 0.347656 0 M 0.769531 -1.777344 L 1.675781 -1.777344 C 1.867188 -1.777344 2.019531 -1.796875 2.125 -1.835938 C 2.234375 -1.875 2.316406 -1.941406 2.375 -2.027344 C 2.429688 -2.117188 2.457031 -2.210938 2.457031 -2.3125 C 2.457031 -2.464844 2.402344 -2.585938 2.292969 -2.683594 C 2.183594 -2.78125 2.011719 -2.828125 1.777344 -2.828125 L 0.769531 -2.828125 Z "/>
</g>
<g id="glyph-0-1">
<path d="M 1.796875 -0.285156 C 1.652344 -0.160156 1.511719 -0.0742188 1.378906 -0.0234375 C 1.246094 0.0273438 1.101562 0.0507812 0.949219 0.0507812 C 0.695312 0.0507812 0.5 -0.0078125 0.363281 -0.132812 C 0.230469 -0.257812 0.160156 -0.414062 0.160156 -0.609375 C 0.160156 -0.71875 0.1875 -0.824219 0.238281 -0.917969 C 0.289062 -1.011719 0.355469 -1.085938 0.4375 -1.140625 C 0.523438 -1.199219 0.617188 -1.242188 0.71875 -1.269531 C 0.796875 -1.289062 0.914062 -1.308594 1.066406 -1.328125 C 1.382812 -1.367188 1.613281 -1.410156 1.765625 -1.460938 C 1.765625 -1.515625 1.765625 -1.550781 1.765625 -1.566406 C 1.765625 -1.722656 1.730469 -1.835938 1.65625 -1.902344 C 1.554688 -1.988281 1.40625 -2.035156 1.210938 -2.035156 C 1.027344 -2.035156 0.890625 -2 0.804688 -1.9375 C 0.714844 -1.871094 0.652344 -1.757812 0.609375 -1.59375 L 0.226562 -1.648438 C 0.261719 -1.808594 0.320312 -1.941406 0.398438 -2.042969 C 0.480469 -2.144531 0.59375 -2.222656 0.746094 -2.273438 C 0.894531 -2.328125 1.070312 -2.355469 1.265625 -2.355469 C 1.464844 -2.355469 1.625 -2.332031 1.746094 -2.285156 C 1.871094 -2.242188 1.960938 -2.183594 2.019531 -2.113281 C 2.074219 -2.042969 2.117188 -1.953125 2.140625 -1.847656 C 2.152344 -1.78125 2.160156 -1.660156 2.160156 -1.488281 L 2.160156 -0.964844 C 2.160156 -0.601562 2.167969 -0.371094 2.183594 -0.277344 C 2.199219 -0.179688 2.234375 -0.0898438 2.28125 0 L 1.875 0 C 1.835938 -0.0820312 1.808594 -0.175781 1.796875 -0.285156 M 1.765625 -1.15625 C 1.621094 -1.097656 1.410156 -1.050781 1.125 -1.007812 C 0.964844 -0.984375 0.851562 -0.960938 0.785156 -0.929688 C 0.71875 -0.902344 0.667969 -0.859375 0.632812 -0.804688 C 0.59375 -0.75 0.578125 -0.6875 0.578125 -0.617188 C 0.578125 -0.515625 0.617188 -0.425781 0.695312 -0.359375 C 0.773438 -0.289062 0.890625 -0.253906 1.042969 -0.253906 C 1.191406 -0.253906 1.324219 -0.285156 1.441406 -0.351562 C 1.558594 -0.417969 1.644531 -0.507812 1.703125 -0.621094 C 1.742188 -0.710938 1.765625 -0.839844 1.765625 -1.011719 Z "/>
</g>
<g id="glyph-0-2">
<path d="M 0.292969 0 L 0.292969 -2.304688 L 0.644531 -2.304688 L 0.644531 -1.976562 C 0.8125 -2.230469 1.058594 -2.355469 1.378906 -2.355469 C 1.515625 -2.355469 1.644531 -2.332031 1.761719 -2.28125 C 1.878906 -2.230469 1.964844 -2.167969 2.023438 -2.085938 C 2.082031 -2.003906 2.121094 -1.90625 2.144531 -1.796875 C 2.160156 -1.722656 2.164062 -1.597656 2.164062 -1.417969 L 2.164062 0 L 1.773438 0 L 1.773438 -1.402344 C 1.773438 -1.5625 1.761719 -1.679688 1.730469 -1.757812 C 1.699219 -1.835938 1.644531 -1.902344 1.566406 -1.949219 C 1.492188 -1.996094 1.398438 -2.019531 1.296875 -2.019531 C 1.128906 -2.019531 0.984375 -1.964844 0.863281 -1.859375 C 0.742188 -1.753906 0.683594 -1.554688 0.683594 -1.257812 L 0.683594 0 Z "/>
</g>
<g id="glyph-0-3">
<path d="M 0.296875 -2.730469 L 0.296875 -3.179688 L 0.6875 -3.179688 L 0.6875 -2.730469 L 0.296875 -2.730469 M 0.296875 0 L 0.296875 -2.304688 L 0.6875 -2.304688 L 0.6875 0 Z "/>
</g>
<g id="glyph-0-4">
</g>
<g id="glyph-0-5">
<path d="M 0.324219 0 L 0.324219 -3.179688 L 0.746094 -3.179688 L 0.746094 -0.375 L 2.3125 -0.375 L 2.3125 0 Z "/>
</g>
<g id="glyph-0-6">
<path d="M 0.03125 0 L 0.875 -1.199219 L 0.09375 -2.304688 L 0.582031 -2.304688 L 0.9375 -1.765625 C 1.003906 -1.660156 1.058594 -1.574219 1.097656 -1.507812 C 1.160156 -1.601562 1.21875 -1.6875 1.273438 -1.761719 L 1.664062 -2.304688 L 2.128906 -2.304688 L 1.332031 -1.21875 L 2.191406 0 L 1.710938 0 L 1.238281 -0.714844 L 1.109375 -0.910156 L 0.503906 0 Z "/>
</g>
<g id="glyph-0-7">
<path d="M 0.292969 0 L 0.292969 -2.304688 L 0.640625 -2.304688 L 0.640625 -1.980469 C 0.714844 -2.09375 0.8125 -2.183594 0.929688 -2.253906 C 1.050781 -2.320312 1.1875 -2.355469 1.339844 -2.355469 C 1.511719 -2.355469 1.652344 -2.320312 1.761719 -2.25 C 1.871094 -2.179688 1.945312 -2.082031 1.992188 -1.953125 C 2.175781 -2.222656 2.410156 -2.355469 2.703125 -2.355469 C 2.933594 -2.355469 3.109375 -2.292969 3.230469 -2.167969 C 3.355469 -2.039062 3.414062 -1.84375 3.414062 -1.582031 L 3.414062 0 L 3.027344 0 L 3.027344 -1.453125 C 3.027344 -1.609375 3.015625 -1.71875 2.988281 -1.789062 C 2.964844 -1.859375 2.917969 -1.914062 2.851562 -1.957031 C 2.785156 -1.996094 2.707031 -2.019531 2.617188 -2.019531 C 2.453125 -2.019531 2.320312 -1.964844 2.214844 -1.855469 C 2.105469 -1.75 2.054688 -1.574219 2.054688 -1.339844 L 2.054688 0 L 1.664062 0 L 1.664062 -1.496094 C 1.664062 -1.671875 1.628906 -1.800781 1.566406 -1.886719 C 1.503906 -1.976562 1.398438 -2.019531 1.253906 -2.019531 C 1.144531 -2.019531 1.042969 -1.988281 0.949219 -1.929688 C 0.855469 -1.875 0.789062 -1.789062 0.746094 -1.675781 C 0.703125 -1.566406 0.683594 -1.40625 0.683594 -1.195312 L 0.683594 0 Z "/>
</g>
<g id="glyph-0-8">
<path d="M 0.652344 0 L 0.289062 0 L 0.289062 -3.179688 L 0.679688 -3.179688 L 0.679688 -2.046875 C 0.847656 -2.253906 1.058594 -2.355469 1.3125 -2.355469 C 1.453125 -2.355469 1.589844 -2.328125 1.714844 -2.269531 C 1.84375 -2.214844 1.945312 -2.132812 2.027344 -2.03125 C 2.109375 -1.925781 2.171875 -1.800781 2.21875 -1.65625 C 2.265625 -1.507812 2.289062 -1.351562 2.289062 -1.1875 C 2.289062 -0.792969 2.191406 -0.488281 1.996094 -0.269531 C 1.800781 -0.0546875 1.566406 0.0507812 1.292969 0.0507812 C 1.019531 0.0507812 0.808594 -0.0625 0.652344 -0.289062 L 0.652344 0 M 0.648438 -1.167969 C 0.648438 -0.894531 0.6875 -0.695312 0.761719 -0.570312 C 0.882812 -0.371094 1.050781 -0.269531 1.261719 -0.269531 C 1.429688 -0.269531 1.578125 -0.34375 1.703125 -0.492188 C 1.828125 -0.640625 1.890625 -0.859375 1.890625 -1.15625 C 1.890625 -1.457031 1.832031 -1.675781 1.710938 -1.820312 C 1.589844 -1.964844 1.449219 -2.035156 1.277344 -2.035156 C 1.105469 -2.035156 0.960938 -1.960938 0.835938 -1.8125 C 0.710938 -1.664062 0.648438 -1.449219 0.648438 -1.167969 Z "/>
</g>
</g>
</defs>
<g fill="rgb(97.647059%, 98.039216%, 98.431373%)" fill-opacity="1">
<use xlink:href="#glyph-0-0" x="30" y="24.022461"/>
<use xlink:href="#glyph-0-1" x="33" y="24.022461"/>
<use xlink:href="#glyph-0-2" x="35" y="24.022461"/>
<use xlink:href="#glyph-0-3" x="37" y="24.022461"/>
<use xlink:href="#glyph-0-4" x="38" y="24.022461"/>
<use xlink:href="#glyph-0-5" x="39" y="24.022461"/>
<use xlink:href="#glyph-0-1" x="41" y="24.022461"/>
<use xlink:href="#glyph-0-6" x="43" y="24.022461"/>
<use xlink:href="#glyph-0-7" x="45" y="24.022461"/>
<use xlink:href="#glyph-0-3" x="49" y="24.022461"/>
<use xlink:href="#glyph-0-8" x="50" y="24.022461"/>
<use xlink:href="#glyph-0-1" x="52" y="24.022461"/>
<use xlink:href="#glyph-0-3" x="54" y="24.022461"/>
</g>
</svg>
